<svg id="Layer_1" data-name="Layer 1" xmlns="http://www.w3.org/2000/svg" viewBox="0 0 181.33 72.33">
  <defs>
    <style>
      .cls-1 {
        fill: #2c296a;
      }

      .cls-2 {
        fill: #f37522;
      }

      .cls-3 {
        fill: #fbaf19;
      }
    </style>
  </defs>
  <title>1</title>
  <g>
    <path class="cls-1" d="M51.18,50.74c0,12.56-9.35,20.08-26.59,20.08a59.24,59.24,0,0,1-13.75-1.51c-3.64-.87-7.23-2.12-7.55-6.45A41.74,41.74,0,0,1,4,53.27c.18-1.16.41-4.28,2.37-3.33a41.84,41.84,0,0,0,17.17,4.2c5.78,0,8.89-1,8.89-3.39,0-2.75-4.31-4-11.37-6.79C10.47,39.83,3,35.43,3,22.78,3,10.4,13.13,2.05,28.81,2.05a56.94,56.94,0,0,1,9.46.79c2.43.41,5.62.59,7.15,2.74a8.92,8.92,0,0,1,1.43,5c.09,3.26-.06,6.51-.06,9.77a1.39,1.39,0,0,1-2,1.26,33.14,33.14,0,0,0-14.33-3.08c-5.41,0-8.71,1.56-8.71,4.22,0,2.38,4,4,10.73,6.79C43.11,34,51.18,38.46,51.18,50.74Z"/>
    <path class="cls-1" d="M178.38,50.74c0,12.56-9.35,20.08-26.59,20.08A59.24,59.24,0,0,1,138,69.31c-3.64-.87-7.23-2.12-7.55-6.45a41.74,41.74,0,0,1,.75-9.59c.18-1.16.41-4.28,2.37-3.33a41.84,41.84,0,0,0,17.17,4.2c5.78,0,8.89-1,8.89-3.39,0-2.75-4.31-4-11.37-6.79-10.64-4.13-18.15-8.53-18.15-21.18,0-12.38,10.18-20.72,25.86-20.72a56.94,56.94,0,0,1,9.46.79c2.43.41,5.62.59,7.15,2.74a8.92,8.92,0,0,1,1.43,5c.09,3.26-.06,6.51-.06,9.77a1.39,1.39,0,0,1-2,1.26,33.14,33.14,0,0,0-14.33-3.08c-5.41,0-8.71,1.56-8.71,4.22,0,2.38,4,4,10.73,6.79C170.31,34,178.38,38.46,178.38,50.74Z"/>
    <g>
      <path class="cls-2" d="M88.66,16.71a2.31,2.31,0,0,0,4,0l4-7a3,3,0,0,0,.38-1.13L97,7.85,96.43,5c-.29-1.64-1.33-3-3-3h-5.6c-1.64,0-2.67,1.33-3,3l-.59,2.83-.05.75a3,3,0,0,0,.38,1.13Z"/>
      <path class="cls-2" d="M72.58,28.31a2.31,2.31,0,0,0,2-3.47l-4-7a3,3,0,0,0-.79-.9l-.68-.33-2.75-.91c-1.56-.57-3.23-.33-4,1.08l-1.4,2.42-1.4,2.42c-.82,1.42-.19,3,1.08,4l2.16,1.93.63.42a3,3,0,0,0,1.17.24Z"/>
      <path class="cls-2" d="M74.58,48a2.31,2.31,0,0,0-2-3.47h-8a3,3,0,0,0-1.17.24l-.63.42-2.16,1.93c-1.27,1.07-1.9,2.63-1.08,4l1.4,2.42,1.4,2.42c.82,1.42,2.49,1.65,4,1.08l2.75-.91.68-.33a3,3,0,0,0,.79-.9Z"/>
      <path class="cls-2" d="M92.67,56.17a2.31,2.31,0,0,0-4,0l-4,7a3,3,0,0,0-.38,1.13l.05.75.59,2.83c.29,1.64,1.33,3,3,3h5.6c1.64,0,2.67-1.33,3-3L97,65l.05-.75a3,3,0,0,0-.38-1.13Z"/>
      <path class="cls-2" d="M108.75,44.57a2.31,2.31,0,0,0-2,3.47l4,7a3,3,0,0,0,.79.9l.68.33,2.75.91c1.56.57,3.23.33,4-1.08l1.4-2.42,1.4-2.42c.82-1.42.19-3-1.08-4l-2.16-1.93-.63-.42a3,3,0,0,0-1.17-.24Z"/>
      <path class="cls-2" d="M106.75,24.84a2.31,2.31,0,0,0,2,3.47h8a3,3,0,0,0,1.17-.24l.63-.42,2.16-1.93c1.27-1.07,1.9-2.63,1.08-4l-1.4-2.42L119,16.82c-.82-1.42-2.49-1.65-4-1.08l-2.75.91-.68.33a3,3,0,0,0-.79.9Z"/>
      <path class="cls-3" d="M74.57,42.19H59.25a3,3,0,0,1-3-3V33.65a3,3,0,0,1,3-3H74.57a5.05,5.05,0,0,0,.6,2.07l0,0a8.64,8.64,0,0,1,.94,4v0a8.66,8.66,0,0,1-1,3.32h0A5.15,5.15,0,0,0,74.57,42.19Z"/>
      <path class="cls-3" d="M84.91,14.94l2.7,4.66a5.25,5.25,0,0,0-1.48,1.57s0,0,0,0A8.62,8.62,0,0,1,83.16,24l0,0a9.06,9.06,0,0,1-3.38.85h0a5.09,5.09,0,0,0-2.1.51L74.93,20.7l-5-8.59a3,3,0,0,1,1.09-4.06l4.84-2.79A2.94,2.94,0,0,1,78.15,5,3,3,0,0,1,80,6.35Z"/>
      <path class="cls-3" d="M87.61,53.26l-2.7,4.68-5,8.59a3,3,0,0,1-4.06,1.08l-4.84-2.79A3,3,0,0,1,70,60.77l5-8.59,2.7-4.68a5.09,5.09,0,0,0,2.09.51h0a8.6,8.6,0,0,1,3.87,1.15h0a8.83,8.83,0,0,1,2.47,2.54h0A5.21,5.21,0,0,0,87.61,53.26Z"/>
      <path class="cls-3" d="M111.36,60.77a3,3,0,0,1-1.08,4.06l-4.84,2.79A2.93,2.93,0,0,1,104,68a3.12,3.12,0,0,1-.78-.1,3,3,0,0,1-1.79-1.38l-5-8.6-2.69-4.65a5.26,5.26,0,0,0,1.48-1.57l0,0a8.52,8.52,0,0,1,2.94-2.79l0,0A9,9,0,0,1,101.6,48h0a5.31,5.31,0,0,0,2.11-.5l2.7,4.68Z"/>
      <path class="cls-3" d="M93.72,19.62l2.7-4.68,5-8.59a3,3,0,0,1,4.06-1.08l4.84,2.79a3,3,0,0,1,1.08,4.06l-5,8.59-2.7,4.67a5.25,5.25,0,0,0-2.09-.5h0a8.55,8.55,0,0,1-3.87-1.15s0,0,0,0a8.64,8.64,0,0,1-2.47-2.53h0A5,5,0,0,0,93.72,19.62Z"/>
      <path class="cls-3" d="M125.06,33.65v5.58a3,3,0,0,1-3,3H106.77a5.14,5.14,0,0,0-.61-2.06s0,0,0,0a8.51,8.51,0,0,1-.94-4v0a8.58,8.58,0,0,1,.95-3.32h0a5.19,5.19,0,0,0,.61-2.07h15.31A3,3,0,0,1,125.06,33.65Z"/>
    </g>
  </g>
</svg>
